<svg id="visual" viewBox="0 0 1500 900" width="1500" height="900" xmlns="http://www.w3.org/2000/svg" xmlns:xlink="http://www.w3.org/1999/xlink" version="1.1"><rect x="0" y="0" width="1500" height="900" fill="#001220"></rect><defs><linearGradient id="grad1_0" x1="40%" y1="0%" x2="100%" y2="100%"><stop offset="16.666666666666664%" stop-color="#001220" stop-opacity="1"></stop><stop offset="83.33333333333334%" stop-color="#001220" stop-opacity="1"></stop></linearGradient></defs><defs><linearGradient id="grad2_0" x1="0%" y1="0%" x2="60%" y2="100%"><stop offset="16.666666666666664%" stop-color="#001220" stop-opacity="1"></stop><stop offset="83.33333333333334%" stop-color="#001220" stop-opacity="1"></stop></linearGradient></defs><g transform="translate(1500, 0)"><path d="M0 787.2C-111.9 783.8 -223.8 780.4 -300.8 726.2C-377.7 672 -419.7 567 -493.6 493.6C-567.4 420.1 -673 378.2 -727.3 301.2C-781.5 224.2 -784.3 112.1 -787.2 0L0 0Z" fill="#0034F1"></path></g><g transform="translate(0, 900)"><path d="M0 -787.2C111.2 -784.4 222.4 -781.5 301.2 -727.3C380.1 -673 426.7 -567.2 488.6 -488.6C550.5 -410 627.7 -358.6 680 -281.7C732.3 -204.7 759.7 -102.4 787.2 0L0 0Z" fill="#0034F1"></path></g></svg>